<?xml version="1.0" encoding="UTF-8" standalone="no"?><!DOCTYPE svg PUBLIC "-//W3C//DTD SVG 1.1//EN" "http://www.w3.org/Graphics/SVG/1.1/DTD/svg11.dtd"><svg width="100%" height="100%" viewBox="0 0 296 604" version="1.1" xmlns="http://www.w3.org/2000/svg" xmlns:xlink="http://www.w3.org/1999/xlink" xml:space="preserve" style="fill-rule:evenodd;clip-rule:evenodd;stroke-linecap:round;stroke-linejoin:round;stroke-miterlimit:1.5;"><g><path d="M294,45.959c0,-24.396 -19.807,-44.203 -44.203,-44.203l-203.594,0c-24.396,0 -44.203,19.807 -44.203,44.203l0,511.594c0,24.396 19.807,44.203 44.203,44.203l203.594,0c24.396,0 44.203,-19.807 44.203,-44.203l0,-511.594Z" style="fill:none;stroke:#101585;stroke-width:3px;"/><path d="M287,45.896c0,-19.946 -16.194,-36.14 -36.14,-36.14l-205.72,0c-19.946,0 -36.14,16.194 -36.14,36.14l0,511.72c0,19.946 16.194,36.14 36.14,36.14l205.72,0c19.946,0 36.14,-16.194 36.14,-36.14l0,-511.72Z" style="fill:none;stroke:#101585;stroke-width:1px;"/><path d="M276.5,81.14c0,-2.837 -2.303,-5.14 -5.14,-5.14l-246.72,0c-2.837,0 -5.14,2.303 -5.14,5.14l0,442.72c0,2.837 2.303,5.14 5.14,5.14l246.72,0c2.837,0 5.14,-2.303 5.14,-5.14l0,-442.72Z" style="fill:none;stroke:#101585;stroke-width:1px;"/><circle cx="101.5" cy="40.5" r="4.5" style="fill:none;stroke:#101585;stroke-width:1px;"/><path d="M173,40.5c0,-1.38 -1.12,-2.5 -2.5,-2.5l-45,0c-1.38,0 -2.5,1.12 -2.5,2.5c0,1.38 1.12,2.5 2.5,2.5l45,0c1.38,0 2.5,-1.12 2.5,-2.5Z" style="fill:none;stroke:#101585;stroke-width:1px;"/><circle cx="148" cy="562" r="23" style="fill:none;stroke:#101585;stroke-width:1px;"/><circle cx="148" cy="562" r="19" style="fill:none;stroke:#101585;stroke-width:1px;"/></g></svg>