<?xml version="1.0" encoding="UTF-8" standalone="no"?><!DOCTYPE svg PUBLIC "-//W3C//DTD SVG 1.1//EN" "http://www.w3.org/Graphics/SVG/1.1/DTD/svg11.dtd"><svg width="100%" height="100%" viewBox="0 0 752 623" version="1.1" xmlns="http://www.w3.org/2000/svg" xmlns:xlink="http://www.w3.org/1999/xlink" xml:space="preserve" style="fill-rule:evenodd;clip-rule:evenodd;stroke-linecap:round;stroke-linejoin:round;stroke-miterlimit:1.5;"><g><path d="M750,27.506c0,-14.212 -11.538,-25.75 -25.75,-25.75l-696.5,0c-14.212,0 -25.75,11.538 -25.75,25.75l0,463.5c0,14.212 11.538,25.75 25.75,25.75l696.5,0c14.212,0 25.75,-11.538 25.75,-25.75l0,-463.5Z" style="fill:none;stroke:#101585;stroke-width:3px;"/><path d="M724.5,31.474c0,-2.469 -2.005,-4.474 -4.474,-4.474l-688.052,0c-2.469,0 -4.474,2.005 -4.474,4.474l0,388.052c0,2.469 2.005,4.474 4.474,4.474l688.052,0c2.469,0 4.474,-2.005 4.474,-4.474l0,-388.052Z" style="fill:none;stroke:#101585;stroke-width:1px;"/><path d="M2,447l748,0" style="fill:none;stroke:#101585;stroke-width:1px;"/><path d="M303.75,516.756c0,0 -0.201,91.783 -34.34,96.088c-1.497,0.173 -2.627,1.44 -2.627,2.947c-0.033,2.309 -0.033,5.209 -0.033,5.209l218.5,0c0,0 0,-2.9 0,-5.209c0,-1.523 -1.143,-2.804 -2.656,-2.979c-34.143,-4.273 -34.344,-96.056 -34.344,-96.056" style="fill:none;stroke:#101585;stroke-width:3px;"/><path d="M305.014,516.756c0,0 -1.229,17.433 -1,17.244c0.229,-0.189 144,-9 144,-9l0,-8.244l-143,0Z" style="fill:#101585;"/></g></svg>