<?xml version="1.0" encoding="UTF-8" standalone="no"?><!DOCTYPE svg PUBLIC "-//W3C//DTD SVG 1.1//EN" "http://www.w3.org/Graphics/SVG/1.1/DTD/svg11.dtd"><svg width="100%" height="100%" viewBox="0 0 81 81" version="1.1" xmlns="http://www.w3.org/2000/svg" xmlns:xlink="http://www.w3.org/1999/xlink" xml:space="preserve" style="fill-rule:evenodd;clip-rule:evenodd;stroke-linecap:round;stroke-linejoin:round;stroke-miterlimit:1.5;"><g id="Layer1"><g><path d="M47.452,23.869c0,0 0.488,2.963 0.909,8.979c0.42,6.015 0.863,8.822 3.815,14.448c3.241,6.179 9.522,22.199 -5.136,27.416c-16.409,5.84 -30.469,-4.777 -38.58,-26.525c-3.089,-8.283 -5.397,-27.513 2.784,-30.779c-1.864,-4.512 1.856,-7.119 1.856,-7.119" style="fill:none;stroke:#101585;stroke-width:1px;"/><path d="M13.1,15.703c0,0 12.866,-15.543 35.261,-1.947" style="fill:none;stroke:#101585;stroke-width:1px;"/><path d="M41.884,13.854c0,0 9.236,3.07 11.352,10.166c-26.469,-11.138 -38.299,-4.707 -38.299,-4.707c0,0 -3.862,3.915 -2.803,11.775l-1.818,4.645c0,0 0.072,15.237 11.135,25.99c2.355,-8.944 12.099,-11.305 12.099,-11.305" style="fill:none;stroke:#101585;stroke-width:1px;"/><path d="M41.204,49.569c0,0 6.031,0.022 10.869,7.642c2.26,-2.707 0.794,-8.337 0.794,-8.337" style="fill:none;stroke:#101585;stroke-width:1px;"/><path d="M7.492,45.548c0,0 -4.828,-3.213 -5.872,2.582c-1.151,6.388 7.35,13.473 10.788,9.438" style="fill:none;stroke:#101585;stroke-width:1px;"/><path d="M42.793,56.109c2.141,-2.618 -2.7,-6.184 -4.507,-11.273c-2.307,-6.5 -2.51,-9.358 -4.343,-9.281c-1.741,0.073 -2.333,4.469 -1.549,9.165c1.067,6.388 7.077,15.452 10.399,11.389Z" style="fill:none;stroke:#101585;stroke-width:1px;"/><path d="M23.725,35.554c1.53,-0.139 3,2.135 3.282,5.074c0.281,2.94 -0.732,5.439 -2.262,5.577c-1.53,0.139 -3,-2.135 -3.282,-5.075c-0.281,-2.939 0.732,-5.438 2.262,-5.576Z" style="fill:#101585;"/><path d="M41.963,34.668c1.34,-0.17 2.709,1.782 3.055,4.356c0.346,2.574 -0.461,4.803 -1.801,4.973c-1.34,0.17 -2.709,-1.782 -3.055,-4.356c-0.346,-2.574 0.461,-4.803 1.801,-4.973Z" style="fill:#101585;"/><path d="M43.817,66.197c0,0 1.391,-2.4 0,-6.316" style="fill:none;stroke:#101585;stroke-width:0.5px;"/><path d="M32.109,58.031c0,0 3.282,6.316 12.334,5.008" style="fill:none;stroke:#101585;stroke-width:1px;"/><path d="M18.667,32.764c0,0 3.453,-4.966 8.371,-2.623" style="fill:none;stroke:#101585;stroke-width:1px;"/><path d="M39.082,29.038c0,0 4.266,-2.688 6.944,1.345" style="fill:none;stroke:#101585;stroke-width:1px;"/><path d="M13.565,59.522c0,0 -1.052,9.083 7.76,15.994c4.515,3.542 13.175,5.908 18.865,0.756c0,0 -15.375,2.5 -26.625,-16.75Z" style="fill:#101585;"/><path d="M33.47,50.641c0,0 3.834,10.66 8.841,6.554c0,0 -4.191,1.433 -8.349,-6.841l-0.492,0.287Z" style="fill:#101585;"/><path d="M15.004,19.451c0,0 12.852,-4.327 31.194,4.198l0.438,-2.125c0,0 -19.664,-7.449 -31.632,-2.073Z" style="fill:#101585;"/><path d="M5.973,45.154c0,0 0.694,6.014 6.018,11.953l0.512,0.079c0,0 -4.812,-8.602 -4.966,-11.572l-1.564,-0.46Z" style="fill:#101585;"/></g></g></svg>